Coordinates
version=1
nRows=17
nColumns=40
inDegrees=yes

Units are S.I. units (second, meters, Newtons, ...)
If the header above contains a line with 'inDegrees', this indicates whether rotational values are in degrees (yes) or radians (no).

endheader
time	pelvis_tilt	pelvis_list	pelvis_rotation	pelvis_tx	pelvis_ty	pelvis_tz	hip_flexion_r	hip_adduction_r	hip_rotation_r	knee_angle_r	knee_angle_r_beta	ankle_angle_r	subtalar_angle_r	mtp_angle_r	hip_flexion_l	hip_adduction_l	hip_rotation_l	knee_angle_l	knee_angle_l_beta	ankle_angle_l	subtalar_angle_l	mtp_angle_l	lumbar_extension	lumbar_bending	lumbar_rotation	arm_flex_r	arm_add_r	arm_rot_r	elbow_flex_r	pro_sup_r	wrist_flex_r	wrist_dev_r	arm_flex_l	arm_add_l	arm_rot_l	elbow_flex_l	pro_sup_l	wrist_flex_l	wrist_dev_l
      1.68000000	      2.88229585	     -7.37145654	     85.27571699	      0.23812721	      0.90858502	     -1.19596740	     -6.64715693	      6.92052201	      0.09539371	      8.29477583	      0.14477115	     12.55737047	      0.00000000	     -0.00000000	     31.55493682	     -3.17351091	     -5.52250895	      4.30438791	      0.07512574	     -4.13416421	     -0.00000000	     -0.00000000	      0.53151116	      4.01217562	      3.63194284	      0.00000000	     -0.00000000	     -0.00000000	      0.00000000	      0.00000000	      0.00000000	     -0.00000000	     -0.00000000	      0.00000000	      0.00000000	      0.00000000	      0.00000000	      0.00000000	      0.00000000
      1.69000000	      2.65706745	     -7.28875997	     85.30652232	      0.23758616	      0.90793097	     -1.20858016	     -6.72889541	      6.47995063	     -0.16963582	      9.82972050	      0.17156099	     12.27167536	      0.00000000	      0.00000000	     31.54836540	     -2.85071747	     -5.96840706	      5.27714490	      0.09210355	     -4.70744701	      0.00000000	      0.00000000	      0.55464411	      3.71574486	      3.55687893	      0.00000000	      0.00000000	      0.00000000	      0.00000000	      0.00000000	      0.00000000	      0.00000000	      0.00000000	      0.00000000	      0.00000000	      0.00000000	      0.00000000	      0.00000000	      0.00000000
      1.70000000	      2.35824292	     -7.27962183	     85.34626286	      0.23689214	      0.90736779	     -1.22120917	     -6.45753627	      5.92692082	     -0.52102507	     11.84797773	      0.20678622	     12.04619060	      0.00000000	      0.00000000	     31.58884342	     -2.46508590	     -6.37076119	      6.39233032	      0.11156721	     -5.21622565	      0.00000000	      0.00000000	      0.66855386	      3.35365988	      3.49451372	      0.00000000	      0.00000000	      0.00000000	      0.00000000	      0.00000000	      0.00000000	      0.00000000	      0.00000000	      0.00000000	      0.00000000	      0.00000000	      0.00000000	      0.00000000	      0.00000000
      1.71000000	      2.21233884	     -7.10105500	     85.37645346	      0.23640885	      0.90728146	     -1.23395494	     -6.33379298	      5.50470088	     -0.92070921	     13.90234065	      0.24264162	     11.24444409	     -0.00000000	     -0.00000000	     31.44360557	     -2.27862713	     -6.76549221	      7.72924902	      0.13490084	     -5.78748534	     -0.00000000	     -0.00000000	      0.58375143	      3.12376547	      3.40530401	     -0.00000000	      0.00000000	     -0.00000000	      0.00000000	      0.00000000	     -0.00000000	     -0.00000000	      0.00000000	      0.00000000	     -0.00000000	      0.00000000	      0.00000000	     -0.00000000	     -0.00000000
      1.72000000	      2.04379026	     -6.96490460	     85.42481583	      0.23580285	      0.90731867	     -1.24669731	     -5.96005099	      5.03686058	     -1.21650461	     16.29468307	      0.28439587	     10.34062444	      0.00000000	      0.00000000	     31.29545971	     -2.06272290	     -7.00748919	      9.12116439	      0.15919435	     -6.23023811	      0.00000000	      0.00000000	      0.54189151	      2.86832184	      3.30732730	      0.00000000	      0.00000000	      0.00000000	      0.00000000	      0.00000000	      0.00000000	      0.00000000	      0.00000000	      0.00000000	      0.00000000	      0.00000000	      0.00000000	      0.00000000	      0.00000000
      1.73000000	      1.88841201	     -6.86328978	     85.47410271	      0.23517202	      0.90747212	     -1.25942055	     -5.34401893	      4.55341385	     -1.52437844	     19.00764278	      0.33174595	      9.30719770	     -0.00000000	     -0.00000000	     31.15427685	     -1.87437133	     -7.20401258	     10.57222311	      0.18452010	     -6.56438633	      0.00000000	      0.00000000	      0.53243449	      2.64204447	      3.20405650	     -0.00000000	      0.00000000	     -0.00000000	      0.00000000	      0.00000000	      0.00000000	      0.00000000	      0.00000000	      0.00000000	     -0.00000000	      0.00000000	      0.00000000	     -0.00000000	     -0.00000000
      1.74000000	      1.78597047	     -6.72530303	     85.50929556	      0.23457201	      0.90784486	     -1.27210988	     -4.60466946	      4.10459076	     -1.75429894	     21.94697918	      0.38304705	      8.01872313	      0.00000000	      0.00000000	     30.92377781	     -1.75061826	     -7.30740366	     12.02286422	      0.20983857	     -6.80423776	      0.00000000	      0.00000000	      0.47445091	      2.47782573	      3.10590798	      0.00000000	      0.00000000	      0.00000000	      0.00000000	      0.00000000	      0.00000000	      0.00000000	      0.00000000	      0.00000000	      0.00000000	      0.00000000	      0.00000000	      0.00000000	      0.00000000
      1.75000000	      1.71185139	     -6.65419943	     85.53173871	      0.23398773	      0.90825548	     -1.28466895	     -3.60021686	      3.67883937	     -1.88872773	     25.14540936	      0.43887019	      6.66830948	      0.00000000	      0.00000000	     30.71148108	     -1.65971950	     -7.32547778	     13.42120047	      0.23424414	     -6.93105244	     -0.00000000	      0.00000000	      0.47334302	      2.35602826	      3.02145610	     -0.00000000	     -0.00000000	     -0.00000000	      0.00000000	      0.00000000	      0.00000000	     -0.00000000	     -0.00000000	     -0.00000000	      0.00000000	      0.00000000	      0.00000000	      0.00000000	     -0.00000000
      1.76000000	      1.63107643	     -6.43298629	     85.56631462	      0.23336054	      0.90904321	     -1.29728303	     -2.69641691	      3.22744633	     -1.98483522	     28.32984536	      0.49444908	      5.01681874	      0.00000000	      0.00000000	     30.25808171	     -1.54205078	     -7.34651694	     14.71438231	      0.25681442	     -6.90552745	      0.00000000	      0.00000000	      0.29621149	      2.21571677	      2.91307482	      0.00000000	      0.00000000	      0.00000000	      0.00000000	      0.00000000	      0.00000000	      0.00000000	      0.00000000	      0.00000000	      0.00000000	      0.00000000	      0.00000000	      0.00000000	      0.00000000
      1.77000000	      1.53727608	     -6.44479337	     85.55692568	      0.23275966	      0.90957745	     -1.30958315	     -1.28173537	      2.78060928	     -1.96430826	     31.83849385	      0.55568655	      3.63736315	      0.00000000	      0.00000000	     30.00009872	     -1.42778737	     -7.26855878	     15.88498839	      0.27724535	     -6.78095042	      0.00000000	      0.00000000	      0.36362975	      2.08801234	      2.83130567	      0.00000000	      0.00000000	      0.00000000	      0.00000000	      0.00000000	      0.00000000	      0.00000000	      0.00000000	      0.00000000	      0.00000000	      0.00000000	      0.00000000	      0.00000000	      0.00000000
      1.78000000	      1.42932468	     -6.27342484	     85.57748931	      0.23212044	      0.91052748	     -1.32196253	     -0.06463236	      2.31888144	     -1.90501694	     35.17044832	      0.61384012	      1.98439783	      0.00000000	      0.00000000	     29.46370485	     -1.26951177	     -7.27104902	     16.91962009	      0.29530308	     -6.46542321	      0.00000000	      0.00000000	      0.21744924	      1.92677141	      2.69982817	      0.00000000	      0.00000000	      0.00000000	      0.00000000	      0.00000000	      0.00000000	      0.00000000	      0.00000000	      0.00000000	      0.00000000	      0.00000000	      0.00000000	      0.00000000	      0.00000000
      1.79000000	      1.31932170	     -6.23106852	     85.56836080	      0.23147500	      0.91141359	     -1.33406316	      1.44328121	      1.88162106	     -1.75521982	     38.56107390	      0.67301770	      0.63703648	      0.00000000	      0.00000000	     28.99566452	     -1.10226597	     -7.17788951	     17.78114774	      0.31033957	     -6.10359620	      0.00000000	      0.00000000	      0.19776386	      1.78127919	      2.61222520	      0.00000000	      0.00000000	      0.00000000	      0.00000000	      0.00000000	      0.00000000	      0.00000000	      0.00000000	      0.00000000	      0.00000000	      0.00000000	      0.00000000	      0.00000000	      0.00000000
      1.80000000	      1.20292842	     -6.18692238	     85.57410811	      0.23089126	      0.91241301	     -1.34605601	      3.00987598	      1.47083278	     -1.57203821	     41.83051272	      0.73008017	     -0.59861579	      0.00000000	      0.00000000	     28.45480976	     -0.92217470	     -7.11737277	     18.47819792	      0.32250539	     -5.61280422	      0.00000000	      0.00000000	      0.15355622	      1.62833684	      2.47426394	      0.00000000	      0.00000000	      0.00000000	      0.00000000	      0.00000000	      0.00000000	      0.00000000	      0.00000000	      0.00000000	      0.00000000	      0.00000000	      0.00000000	      0.00000000	      0.00000000
      1.81000000	      1.09906646	     -6.28853288	     85.57863059	      0.23027715	      0.91332222	     -1.35776919	      4.82704371	      1.12886230	     -1.30432953	     44.99451487	      0.78530243	     -1.45919841	      0.00000000	      0.00000000	     28.02296936	     -0.74233353	     -6.99878252	     19.03188002	      0.33216897	     -5.16539001	      0.00000000	      0.00000000	      0.25622057	      1.51100136	      2.33508429	      0.00000000	      0.00000000	      0.00000000	      0.00000000	      0.00000000	      0.00000000	      0.00000000	      0.00000000	      0.00000000	      0.00000000	      0.00000000	      0.00000000	      0.00000000	      0.00000000
      1.82000000	      0.97787708	     -6.17238348	     85.59276257	      0.22965599	      0.91468873	     -1.36954033	      6.37603216	      0.75598922	     -1.08307172	     47.81713167	      0.83456639	     -2.37746529	      0.00000000	      0.00000000	     27.26876602	     -0.51797618	     -6.93957543	     19.42080497	      0.33895699	     -4.47388769	      0.00000000	      0.00000000	      0.10181594	      1.35245159	      2.18987743	      0.00000000	      0.00000000	      0.00000000	      0.00000000	      0.00000000	      0.00000000	      0.00000000	      0.00000000	      0.00000000	      0.00000000	      0.00000000	      0.00000000	      0.00000000	      0.00000000
      1.83000000	      0.83885073	     -6.24427706	     85.60513009	      0.22903397	      0.91587083	     -1.38102350	      8.21692306	      0.39985242	     -0.85680658	     50.48787618	      0.88117967	     -2.82995349	      0.00000000	      0.00000000	     26.64596465	     -0.27460865	     -6.89889208	     19.61318239	      0.34231461	     -3.87505609	      0.00000000	      0.00000000	      0.14023415	      1.19696913	      1.99299737	      0.00000000	      0.00000000	      0.00000000	      0.00000000	      0.00000000	      0.00000000	      0.00000000	      0.00000000	      0.00000000	      0.00000000	      0.00000000	      0.00000000	      0.00000000	      0.00000000
      1.84000000	      0.71777324	     -6.28958101	     85.63921135	      0.22843743	      0.91718170	     -1.39239455	     10.03069708	      0.09271772	     -0.64678669	     52.83855188	      0.92220670	     -3.10625997	      0.00000000	      0.00000000	     25.94542260	     -0.03498573	     -6.85549064	     19.68746301	      0.34361105	     -3.24814769	      0.00000000	      0.00000000	      0.13261677	      1.05552091	      1.78568597	      0.00000000	      0.00000000	      0.00000000	      0.00000000	      0.00000000	      0.00000000	      0.00000000	      0.00000000	      0.00000000	      0.00000000	      0.00000000	      0.00000000	      0.00000000	      0.00000000
